<?xml version="1.0" encoding="UTF-8" standalone="no"?>
<!DOCTYPE svg PUBLIC "-//W3C//DTD SVG 1.1//EN"
 "http://www.w3.org/Graphics/SVG/1.1/DTD/svg11.dtd">
<!-- Generated by graphviz version 14.1.2 (20260124.0452)
 -->
<!-- Title: PlanImplement Pages: 1 -->
<svg width="703pt" height="44pt"
 viewBox="0.00 0.00 703.00 44.00" xmlns="http://www.w3.org/2000/svg" xmlns:xlink="http://www.w3.org/1999/xlink">
<style>
  @media (prefers-color-scheme: dark) {
    [fill="#1a1a1a"] { fill: #e5e5e5; }
    [fill="#666666"] { fill: #aaaaaa; }
    [stroke="#666666"] { stroke: #aaaaaa; }
    [stroke="#999999"] { stroke: #777777; }
  }
</style>
<g id="graph0" class="graph" transform="scale(1 1) rotate(0) translate(4 40.25)">
<title>PlanImplement</title>
<!-- start -->
<g id="node1" class="node">
<title>start</title>
<polygon fill="none" stroke="#357f9e" points="35.26,-36.12 0,-18.13 35.26,-0.13 70.52,-18.12 35.26,-36.12"/>
<polyline fill="none" stroke="#357f9e" points="10.69,-23.58 10.69,-12.67"/>
<polyline fill="none" stroke="#357f9e" points="24.57,-5.58 45.95,-5.58"/>
<polyline fill="none" stroke="#357f9e" points="59.83,-12.67 59.83,-23.58"/>
<polyline fill="none" stroke="#357f9e" points="45.95,-30.67 24.57,-30.67"/>
<text xml:space="preserve" text-anchor="middle" x="35.26" y="-13.1" font-family="Helvetica,sans-Serif" font-size="12.00" fill="#1a1a1a">Start</text>
</g>
<!-- plan -->
<g id="node3" class="node">
<title>plan</title>
<ellipse fill="none" stroke="#357f9e" cx="134.52" cy="-18.12" rx="27" ry="18"/>
<text xml:space="preserve" text-anchor="middle" x="134.52" y="-13.1" font-family="Helvetica,sans-Serif" font-size="12.00" fill="#1a1a1a">Plan</text>
</g>
<!-- start&#45;&gt;plan -->
<g id="edge1" class="edge">
<title>start&#45;&gt;plan</title>
<path fill="none" stroke="#666666" d="M71.37,-18.12C79.34,-18.12 87.84,-18.12 95.91,-18.12"/>
<polygon fill="#666666" stroke="#666666" points="95.8,-21.63 105.8,-18.13 95.8,-14.63 95.8,-21.63"/>
</g>
<!-- exit -->
<g id="node2" class="node">
<title>exit</title>
<polygon fill="none" stroke="#357f9e" points="695.32,-36.25 659.07,-36.25 659.07,0 695.32,0 695.32,-36.25"/>
<polyline fill="none" stroke="#357f9e" points="671.07,-36.25 659.07,-24.25"/>
<polyline fill="none" stroke="#357f9e" points="659.07,-12 671.07,0"/>
<polyline fill="none" stroke="#357f9e" points="683.32,0 695.32,-12"/>
<polyline fill="none" stroke="#357f9e" points="695.32,-24.25 683.32,-36.25"/>
<text xml:space="preserve" text-anchor="middle" x="677.2" y="-13.1" font-family="Helvetica,sans-Serif" font-size="12.00" fill="#1a1a1a">Exit</text>
</g>
<!-- approve -->
<g id="node4" class="node">
<title>approve</title>
<polygon fill="none" stroke="#357f9e" points="353.68,-18.12 322.33,-36.12 259.62,-36.12 228.27,-18.13 259.62,-0.13 322.33,-0.12 353.68,-18.12"/>
<text xml:space="preserve" text-anchor="middle" x="290.98" y="-13.1" font-family="Helvetica,sans-Serif" font-size="12.00" fill="#1a1a1a">Approve Plan</text>
</g>
<!-- plan&#45;&gt;approve -->
<g id="edge2" class="edge">
<title>plan&#45;&gt;approve</title>
<path fill="none" stroke="#666666" d="M161.72,-18.12C176.76,-18.12 196.47,-18.12 215.91,-18.12"/>
<polygon fill="#666666" stroke="#666666" points="215.77,-21.63 225.77,-18.13 215.77,-14.63 215.77,-21.63"/>
</g>
<!-- approve&#45;&gt;plan -->
<g id="edge4" class="edge">
<title>approve&#45;&gt;plan</title>
<path fill="none" stroke="#666666" d="M247.15,-6.91C226.65,-3 201.77,-0.36 179.52,-3.88 176.14,-4.41 172.67,-5.16 169.22,-6.04"/>
<polygon fill="#666666" stroke="#666666" points="168.54,-2.59 159.93,-8.77 170.51,-9.31 168.54,-2.59"/>
<text xml:space="preserve" text-anchor="middle" x="194.9" y="-5.62" font-family="Helvetica,sans-Serif" font-size="10.00" fill="#666666">Revise</text>
</g>
<!-- implement -->
<g id="node5" class="node">
<title>implement</title>
<ellipse fill="none" stroke="#357f9e" cx="469.43" cy="-18.12" rx="43.75" ry="18"/>
<text xml:space="preserve" text-anchor="middle" x="469.43" y="-13.1" font-family="Helvetica,sans-Serif" font-size="12.00" fill="#1a1a1a">Implement</text>
</g>
<!-- approve&#45;&gt;implement -->
<g id="edge3" class="edge">
<title>approve&#45;&gt;implement</title>
<path fill="none" stroke="#666666" d="M354.68,-18.12C374.04,-18.12 395.2,-18.12 413.95,-18.12"/>
<polygon fill="#666666" stroke="#666666" points="413.77,-21.63 423.77,-18.13 413.77,-14.63 413.77,-21.63"/>
<text xml:space="preserve" text-anchor="middle" x="389.68" y="-19.88" font-family="Helvetica,sans-Serif" font-size="10.00" fill="#666666">Approve</text>
</g>
<!-- simplify -->
<g id="node6" class="node">
<title>simplify</title>
<ellipse fill="none" stroke="#357f9e" cx="586.12" cy="-18.12" rx="35.95" ry="18"/>
<text xml:space="preserve" text-anchor="middle" x="586.12" y="-13.1" font-family="Helvetica,sans-Serif" font-size="12.00" fill="#1a1a1a">Simplify</text>
</g>
<!-- implement&#45;&gt;simplify -->
<g id="edge5" class="edge">
<title>implement&#45;&gt;simplify</title>
<path fill="none" stroke="#666666" d="M513.46,-18.12C521.58,-18.12 530.12,-18.12 538.35,-18.12"/>
<polygon fill="#666666" stroke="#666666" points="538.2,-21.63 548.2,-18.13 538.2,-14.63 538.2,-21.63"/>
</g>
<!-- simplify&#45;&gt;exit -->
<g id="edge6" class="edge">
<title>simplify&#45;&gt;exit</title>
<path fill="none" stroke="#666666" d="M622.33,-18.12C630.59,-18.12 639.31,-18.12 647.26,-18.12"/>
<polygon fill="#666666" stroke="#666666" points="647.08,-21.63 657.08,-18.13 647.08,-14.63 647.08,-21.63"/>
</g>
</g>
</svg>
